<svg width="52" height="53" viewBox="0 0 52 53" fill="none" xmlns="http://www.w3.org/2000/svg">
<path d="M47.389 2H4.61497C3.14986 2 1.96216 3.21055 1.96216 4.70383V48.3005C1.96216 49.7938 3.14986 51.0043 4.61497 51.0043H47.389C48.8541 51.0043 50.0418 49.7938 50.0418 48.3005V4.70383C50.0418 3.21055 48.8541 2 47.389 2Z" fill="#3D5A98"/>
<path d="M35.1326 51V32.0235H41.3807L42.3151 24.6284H35.1326V19.9081C35.1326 17.7674 35.7176 16.3057 38.7279 16.3057H42.571V9.68074C40.71 9.48306 38.8399 9.38906 36.9688 9.39917C31.4357 9.39917 27.6251 12.8359 27.6251 19.1752V24.6284H21.377V32.0235H27.6251V51H35.1326Z" fill="white"/>
</svg>
