<svg width="48" height="49" viewBox="0 0 48 49" fill="none" xmlns="http://www.w3.org/2000/svg">
<g clip-path="url(#clip0_154_257)">
<path d="M10.9091 48.7588V23.6469L5.15756 16.5221L0 12.5684V44.3272C0 46.7792 1.46719 48.7588 3.27281 48.7588H10.9091Z" fill="#4285F4"/>
<path d="M37.0908 48.7588H44.7271C46.5382 48.7588 47.9999 46.7719 47.9999 44.3272V12.5686L42.1582 17.0972L37.0908 23.6469V48.7588Z" fill="#34A853"/>
<path d="M10.9091 23.647L10.1265 13.8351L10.9091 4.44409L24 17.7386L37.0908 4.44409L37.9663 13.3281L37.0908 23.647L24 36.9415L10.9091 23.647Z" fill="#EA4335"/>
<path d="M37.0908 4.44419V23.6471L47.9999 12.5685V6.65985C47.9999 1.17972 43.3799 -1.94435 40.1456 1.34221L37.0908 4.44419Z" fill="#FBBC04"/>
<path d="M0 12.5684L5.01731 17.6639L10.9091 23.647V4.44406L7.85438 1.34208C4.61438 -1.94473 0 1.17959 0 6.65947V12.5682V12.5684Z" fill="#C5221F"/>
</g>
<defs>
<clipPath id="clip0_154_257">
<rect width="48" height="49" fill="white"/>
</clipPath>
</defs>
</svg>
