<svg width="1459" height="1132" viewBox="0 0 1459 1132" fill="none" xmlns="http://www.w3.org/2000/svg">
<g clip-path="url(#clip0_185_937)" filter="url(#filter0_d_185_937)">
<rect width="1439" height="1112" transform="translate(10 6)" fill="#010101"/>
<path d="M10 754.978C10 754.978 219.332 725.524 348.336 754.978C364.495 758.668 373.998 771.689 389.451 765.577C393.789 763.861 395.478 761.329 399.729 759.395C418.823 750.704 432.007 764.197 452.835 765.577C480.542 767.414 496.236 767.632 523.929 765.577C536.677 764.632 543.844 760.047 556.477 762.044C563.381 763.136 566.796 765.756 573.608 767.344C604.418 774.526 622.55 758.453 654.124 759.395C678.385 760.118 691.634 764.96 715.795 767.344C801.707 775.821 851.248 777.421 936.785 765.577C949.866 763.766 957.307 757.318 970.19 760.278C975.253 761.441 977.607 763.72 982.61 765.136C995.998 768.925 1004.29 764.8 1018.16 765.577C1026.53 766.047 1031.19 766.845 1039.57 767.344C1080.03 769.753 1102.69 761.483 1143.21 762.044C1183.13 762.598 1449 769.994 1449 769.994V1118H10V754.978Z" fill="url(#paint0_linear_185_937)"/>
<g filter="url(#filter1_f_185_937)">
<path d="M376.518 844.065C392.004 859.684 410.213 844.065 431.804 844.065C447.925 844.065 456.978 844.778 473.084 844.065C495.635 843.068 508.223 841.158 530.581 837.943C543.286 836.116 550.195 832.197 563.016 832.586C573.851 832.915 579.557 836.362 590.29 837.943C633.659 844.332 702.336 832.586 702.336 832.586L747.302 853.249C747.302 853.249 726.832 860.522 713.393 863.963C681.324 872.174 662.352 875.537 629.359 873.912C618.085 873.356 611.859 871.8 600.61 870.85C557.284 867.192 532.052 862.683 489.301 870.85C477.078 873.186 470.765 878.138 458.341 878.503C444.232 878.919 437.018 872.138 422.958 870.85C404.856 869.193 376.518 873.912 376.518 873.912C376.518 873.912 409.998 881.422 431.804 883.095C450.752 884.548 461.472 883.924 480.455 883.095C506.47 881.959 520.79 877.496 546.798 876.207C570.665 875.025 584.099 876.956 607.981 876.207C636.82 875.303 681.696 871.098 681.696 871.098C681.696 871.098 698.905 870.6 709.708 868.554C721.806 866.264 728.012 862.518 739.93 859.371C747.375 857.405 751.425 854.369 759.096 854.779C765.375 855.115 768.429 857.999 774.576 859.371C793.996 863.704 805.616 858.057 825.439 859.371C861.054 861.73 915.371 876.207 915.371 876.207C915.371 876.207 861.518 881.421 826.914 883.095C808.788 883.972 797.299 891.678 780.473 884.625C774.613 882.169 772.781 876.519 766.468 876.207C761.284 875.951 759.052 879.89 753.936 880.799C743.86 882.589 738.352 875.838 728.136 876.207C714.216 876.71 708.145 887.124 694.227 887.687C685.521 888.039 680.826 884.68 672.113 884.625C661.935 884.562 656.434 887.335 646.313 888.452C623.691 890.948 610.809 889.012 588.078 889.982C567.337 890.868 555.687 891.201 535.004 893.044C519.135 894.457 494.461 897.635 494.461 897.635L446.547 903.758C446.547 903.758 420.485 904.126 403.792 903.758C384.777 903.338 374.098 899.864 355.141 901.462C340.564 902.69 332.889 907.56 318.283 908.349C297.709 909.461 286.518 902.63 265.946 901.462C222.042 898.97 153.9 912.941 153.9 912.941C153.9 912.941 125.273 927.971 105.334 931.369C88.0074 934.322 77.2857 936.216 60.365 931.369C48.2575 927.901 44.0539 914.922 31.585 916.529C21.5323 917.825 10 931.369 10 931.369V818.213C10 818.213 23.1817 820.779 31.585 822.637C47.1381 826.076 55.4347 835.072 71.1575 832.586C80.9219 831.042 84.962 825.126 94.5413 822.637C117.132 816.768 153.9 828.759 153.9 828.759C153.9 828.759 165.444 832.531 173.066 832.586C180.97 832.642 185.071 829.098 192.969 828.759C203.138 828.324 208.607 832 218.769 832.586C243.2 833.995 256.717 817.54 280.689 822.637C288.092 824.211 291.78 826.884 299.118 828.759C324.834 835.333 348.601 808.917 366.935 828.759C371.689 833.904 371.593 839.098 376.518 844.065Z" fill="url(#paint1_linear_185_937)"/>
</g>
<path d="M684.742 797.561C684.742 797.561 711.351 755.716 737.152 740.372C759.459 727.108 775.123 718.553 800.635 722.072C818.044 724.473 825.662 733.643 841.973 740.372C870.336 752.074 896.823 742.332 915.79 767.061C936.057 793.486 920.957 853.225 920.957 853.225C920.957 853.225 855.319 859.204 813.922 853.225C796.453 850.702 787.198 842.424 769.632 844.075C754.742 845.474 748.091 853.852 733.462 857.038C709.485 862.259 670.717 857.038 670.717 857.038C670.717 857.038 669.462 834.106 673.67 820.437C676.6 810.919 684.742 797.561 684.742 797.561Z" fill="#191515"/>
<path d="M670.717 857.048C670.717 857.048 709.556 862.248 733.576 857.048L776.468 825.426L765.376 794.286L726.181 770.74L684.768 797.805C684.768 797.805 676.611 811.11 673.675 820.591C669.46 834.206 670.717 857.048 670.717 857.048Z" fill="#120F0F"/>
<g filter="url(#filter2_f_185_937)">
<path d="M976.836 822.133C976.836 822.133 973.012 821.803 970.937 820.612C968.862 819.421 960.277 822.977 953.976 825.935C946.78 829.314 944.161 833.847 937.016 837.341C932.57 839.515 925.218 841.903 925.218 841.903C925.218 841.903 909.053 840.54 898.671 840.382C894.928 840.325 885.398 840.382 885.398 840.382C885.76 843.938 886.036 845.97 887.61 850.267L900.883 860.157C911.795 861.197 953.239 860.152 965.037 860.152C973.981 857.359 981.813 855.543 984.947 846.465C988.215 836.999 985.72 826.262 976.836 822.133Z" fill="black"/>
</g>
<path d="M901.621 764.345L948.077 762.824L952.502 767.386L954.714 805.405C954.714 805.405 958.349 810.484 961.351 813.009C965.144 816.201 967.911 816.509 972.412 819.092C974.487 820.283 976.146 819.607 978.311 820.613C987.195 824.742 989.691 835.479 986.423 844.945C983.289 854.023 975.456 855.839 966.513 858.632C954.714 858.632 938.492 857.111 938.492 857.111L889.086 848.747C886.396 841.225 885.434 835.296 889.086 828.217C892.064 822.443 897.623 822.648 901.621 817.572C914.331 801.437 901.621 764.345 901.621 764.345Z" fill="#B8C7E2"/>
<path d="M901.621 764.343C901.621 764.343 900.147 806.925 896.46 818.33C893.974 822.472 892.064 822.442 889.086 828.215C885.434 835.294 886.396 841.223 889.086 848.746L938.492 857.11C938.492 857.11 944.845 846.949 945.128 839.621C945.443 831.458 942.095 827.127 938.492 819.851C935.839 814.496 931.372 812.85 930.38 806.925C928.911 798.156 918.975 788.536 922.268 780.311C924.494 774.754 915.632 774.228 915.632 774.228C907.508 771.983 901.621 764.343 901.621 764.343Z" fill="#9DA2AD"/>
<path d="M978.312 820.613C978.312 820.613 974.487 820.283 972.412 819.092C970.337 817.901 961.753 821.457 955.452 824.415C948.255 827.794 945.637 832.328 938.492 835.821C934.045 837.995 926.693 840.383 926.693 840.383C926.693 840.383 910.529 839.02 900.147 838.862C896.404 838.806 886.874 838.863 886.874 838.863C887.236 842.418 887.511 844.45 889.086 848.747L938.492 857.112C949.403 858.151 954.715 858.632 966.513 858.632C975.457 855.839 983.289 854.023 986.423 844.945C989.691 835.479 987.195 824.742 978.312 820.613Z" fill="#3F687E"/>
<path d="M955.451 824.415C955.451 824.415 965.869 832.663 967.986 840.383C969.874 847.265 966.512 858.632 966.512 858.632" stroke="#33586B"/>
<path d="M968.724 819.852C968.724 819.852 979.142 827.733 981.259 835.11C983.147 841.686 978.785 853.579 978.785 853.579" stroke="#33586B"/>
<path d="M920.793 785.906C920.793 784.967 921.602 784.248 922.503 784.382C926.766 785.015 938.086 786.492 945.865 785.636C949.349 785.252 953.977 784.115 953.977 784.115L954.714 797.802C954.714 797.802 949.349 798.939 945.865 799.322C937.773 800.214 925.849 798.579 922.023 797.996C921.308 797.888 920.793 797.255 920.793 796.51V785.906Z" fill="#DADBDF"/>
<path d="M918.88 807.721C918.71 808.5 919.146 809.277 919.892 809.49C924.172 810.715 937.983 814.373 947.483 813.505C959.976 812.363 957.664 808.446 957.664 808.446L954.713 800.843C954.713 800.843 955.437 801.568 945.528 802.46C937.614 803.173 926.133 800.84 922.111 799.941C921.307 799.762 920.506 800.28 920.325 801.107L918.88 807.721Z" fill="#EBECF1"/>
<path d="M675.243 460.953L762.994 455.631L769.63 521.024L686.304 529.388L675.243 460.953Z" fill="#F7F5F6"/>
<path d="M686.302 529.388L769.629 521.023V522.544L687.04 530.908L686.302 529.388Z" fill="#B6B2B2"/>
<path d="M675.243 460.954C675.243 460.954 688.366 458.901 696.627 460.193C713.084 462.767 721.706 470.13 733.497 482.244C745.921 495.009 755.62 522.545 755.62 522.545L686.304 529.388L675.243 460.954Z" fill="#D4D4D4"/>
<path d="M634.475 488.776C633.731 485.381 635.316 481.899 638.324 480.321L675.241 460.953L686.302 529.387L647.22 546.876L634.475 488.776Z" fill="#CFCECE"/>
<path d="M838.208 781.074H892.776L897.201 784.116L891.301 822.135C891.301 822.135 894.936 827.213 897.938 829.739C901.731 832.93 904.498 833.238 908.999 835.822C911.074 837.013 912.733 836.336 914.898 837.343C923.782 841.472 926.278 852.209 923.01 861.675C919.876 870.753 912.043 872.569 903.1 875.362C891.301 875.362 875.079 873.841 875.079 873.841L825.672 865.477C822.983 857.954 822.021 852.025 825.672 844.946C828.651 839.173 834.21 839.377 838.208 834.301C850.918 818.167 838.208 781.074 838.208 781.074Z" fill="#B8C7E2"/>
<path d="M838.208 781.074C838.208 781.074 836.733 823.656 833.046 835.061C830.561 839.203 828.651 839.173 825.672 844.946C822.021 852.025 822.983 857.954 825.672 865.477L875.079 873.841C875.079 873.841 881.432 863.68 881.715 856.352C882.03 848.188 878.682 843.858 875.079 836.582C872.426 831.227 867.959 829.581 866.967 823.656C865.498 814.887 873.26 811.35 876.553 803.125C878.779 797.568 887.546 788.605 881.715 788.678C878.75 788.716 877.81 791.292 875.079 792.48C867.87 795.615 862.725 796.85 855.169 794.761C847.045 792.515 838.208 781.074 838.208 781.074Z" fill="#9DA2AD"/>
<path d="M914.896 837.342C912.868 836.173 911.869 837.204 908.996 835.821C906.124 834.439 898.337 838.186 892.036 841.144C884.839 844.523 882.221 849.057 875.076 852.55C870.629 854.724 863.277 857.112 863.277 857.112C863.277 857.112 847.113 855.749 836.731 855.591C832.988 855.535 823.331 855.591 823.331 855.591C823.693 859.147 824.095 861.179 825.67 865.476L875.076 873.84C885.988 874.88 891.299 875.361 903.097 875.361C912.041 872.568 919.873 870.752 923.007 861.674C926.275 852.208 923.779 841.471 914.896 837.342Z" fill="#3F687E"/>
<path d="M892.038 841.145C892.038 841.145 902.456 849.393 904.573 857.113C906.461 863.994 903.099 875.362 903.099 875.362" stroke="#33586B"/>
<path d="M905.311 836.582C905.311 836.582 915.729 844.463 917.846 851.84C919.734 858.416 915.372 870.308 915.372 870.308" stroke="#33586B"/>
<path d="M749.719 496.692C751.9 495.927 753.317 496.589 755.618 496.692C780.782 497.824 810.924 530.909 810.924 530.909C810.924 530.909 790.62 527.624 777.74 524.826C764.687 521.99 744.557 516.462 744.557 516.462C744.557 516.462 741.309 506.159 744.557 501.254C746.055 498.994 747.206 497.574 749.719 496.692Z" fill="#161824"/>
<path d="M695.151 597.822L722.435 730.889L731.284 727.847L756.356 724.045L793.963 716.442L769.629 522.544L687.04 530.908L695.151 597.822Z" fill="#BFBCBC"/>
<path d="M741.562 512.626C759.052 504.096 770.392 522.376 789.493 525.552C810.562 529.055 844.061 528.594 844.061 528.594C844.061 528.594 843.02 533.873 844.061 536.958C845.672 541.734 850.74 541.249 853.647 545.322C858.078 551.531 852.493 560.207 858.809 564.332C861.583 566.143 864.599 564.219 866.92 566.613C869.242 569.007 867.557 572.007 869.132 574.977C870.602 577.746 873.931 577.926 874.294 581.06C874.543 583.207 872.135 584.339 872.82 586.383C873.947 589.751 878.216 586.239 881.668 586.383C887.166 586.612 890.179 588.061 895.679 587.904C900.035 587.779 906.74 586.383 906.74 586.383L934.808 571.97C934.808 571.97 939.24 566.605 942.92 564.332C946.588 562.065 949.413 558.602 953.243 560.564C957.247 562.615 956.193 571.97 956.193 571.97C956.193 571.97 971.678 570.449 977.578 571.97C980.076 572.614 980.002 576.688 979.79 577.292C979.002 579.538 975.365 581.094 975.365 581.094C975.365 581.094 978.237 583.861 977.578 587.177C976.877 590.698 971.678 590.219 971.678 590.219C971.678 590.219 973.644 594.27 972.416 596.302C971.528 597.772 969.466 598.583 969.466 598.583C969.466 598.583 970.786 600.306 970.941 601.625C971.336 604.986 963.567 606.947 963.567 606.947L956.193 608.468L938.448 642.651C938.448 642.651 950.75 650.717 955.409 658.619C959.478 665.522 959.771 670.468 961.308 678.389C964.985 697.336 959.258 708.493 959.096 727.814C959.058 732.268 959.319 734.771 959.096 739.22C958.629 748.532 956.102 753.495 955.409 762.792C954.768 771.378 960.104 777.721 955.409 784.843C943.61 784.843 934.379 778.882 920.751 775.718C912.431 773.787 902.153 768.148 902.153 768.148C902.153 768.148 901.168 756.358 901.578 746.824C903.26 707.772 892.729 647.974 892.729 647.974C892.729 647.974 907.117 651.93 913.377 658.619C923.93 669.896 921.563 682.57 920.013 698.159C918.057 717.845 902.462 724.392 898.629 743.782C895.522 759.494 909.747 773.632 898.629 784.843C895.027 788.474 892.23 789.719 887.568 791.686C883.172 793.54 880.45 793.901 875.769 794.728C865.267 796.583 857.609 800.403 848.485 794.728C842.708 791.134 839.824 787.543 837.424 781.041C834.344 772.696 837.971 767.106 838.899 758.229C840.213 745.658 844.061 735.418 844.061 726.293C837.542 727.114 837.27 732.816 830.788 733.897C826.767 734.568 823.722 734.713 819.727 733.897C813.557 732.637 811.615 729.335 804.978 730.856C804.194 731.908 804.357 732.902 803.504 733.897C801.023 736.788 797.401 735.312 793.917 733.897C792.355 733.262 791.76 730.902 790.23 731.616C789.057 732.163 789.546 733.609 788.756 734.657C785.573 738.877 780.612 735.428 775.482 734.657C748.687 730.632 741.802 702.215 737.875 674.587C735.908 660.75 745.293 651.763 740.087 638.849C737.014 631.226 731.233 629.452 727.551 622.121C721.369 609.809 723.023 600.936 721.652 587.143C719.655 567.056 712.889 553.495 721.652 535.437C726.853 524.719 731.055 517.75 741.562 512.626Z" fill="#E1E7F1"/>
<path d="M844.06 536.958C843.019 533.873 844.06 528.593 844.06 528.593C844.06 528.593 836.539 524.313 832.309 526.346C828.11 528.364 826.294 532.183 826.409 536.958C826.557 543.058 834.975 542.571 836.733 548.398C838.846 555.399 830.735 559.461 832.309 566.613C834.295 575.64 848.195 573.424 849.269 582.615C849.999 588.868 841.96 591.908 844.06 597.822C846.665 605.159 855.542 606.895 862.542 603.905C867.448 601.81 869.443 598.354 871.391 593.26C872.368 590.705 873.503 588.426 872.819 586.383C872.134 584.339 874.542 583.206 874.293 581.06C873.931 577.925 870.601 577.746 869.132 574.977C867.556 572.006 869.241 569.007 866.919 566.613C864.598 564.218 861.582 566.143 858.808 564.331C852.492 560.206 858.078 551.531 853.646 545.322C850.739 541.249 845.671 541.734 844.06 536.958Z" fill="white"/>
<path d="M942.919 564.331C939.239 566.604 934.808 571.969 934.808 571.969C934.808 571.969 932.063 578.928 934.808 581.093C937.365 583.111 940.01 580.995 942.919 579.573C946.052 578.04 947.825 576.588 949.556 573.49C950.329 572.104 950.939 571.284 951.03 569.688C951.137 567.813 950.792 566.505 949.556 565.125C948.851 564.339 948.331 563.936 947.343 563.605C945.68 563.046 942.919 564.331 942.919 564.331Z" fill="#DDE4F0"/>
<path d="M881.668 586.382C878.216 586.238 873.947 589.75 872.82 586.382C872.82 586.382 865.735 587.815 866.23 590.978C866.588 593.268 869.822 592.626 870.654 594.78C871.637 597.323 868.324 599.032 869.179 601.624C870.107 604.435 872.505 604.855 875.079 606.186C881.005 609.251 885.437 606.325 892.039 606.946C896.663 607.382 899.495 610.164 903.837 608.467C908.632 606.593 910.312 602.832 911.949 597.822C913.512 593.038 916.775 585.744 911.949 584.895C909.868 584.529 906.74 586.382 906.74 586.382C906.74 586.382 900.035 587.778 895.679 587.902C890.18 588.059 887.166 586.611 881.668 586.382Z" fill="#DDE4F0"/>
<path d="M955.407 658.619C950.747 650.717 938.446 642.651 938.446 642.651C933.67 649.12 943.638 654.162 946.605 661.695C950.407 671.35 954.044 676.462 955.407 686.788C957.13 699.852 951.733 707.08 951.029 720.245C950.537 729.436 952.179 734.688 951.029 743.816C950.077 751.374 948.032 755.314 946.605 762.792C945.587 768.121 942.425 771.474 944.392 776.513C946.385 781.615 946.605 784.843 955.407 784.843C960.102 777.721 954.766 771.378 955.407 762.792C956.1 753.495 958.627 748.532 959.094 739.22C959.317 734.772 959.056 732.268 959.094 727.814C959.255 708.493 964.982 697.336 961.306 678.389C959.769 670.469 959.476 665.522 955.407 658.619Z" fill="white"/>
<path d="M920.014 698.158C921.563 682.569 923.93 669.895 913.377 658.619C907.117 651.929 892.73 647.973 892.73 647.973C892.73 647.973 899.537 642.862 904.575 642.685C913.209 642.381 916.941 649.362 922.273 656.372C930.037 666.577 931.382 675.34 931.122 688.308C930.925 698.1 929.527 703.909 925.222 712.64C922.688 717.779 919.433 719.561 917.111 724.806C914.295 731.168 913.081 735.308 913.377 742.295C913.625 748.128 915.804 751.061 917.111 756.742C918.806 764.108 926.199 770.623 920.798 775.752C920.798 775.752 907.477 774.158 902.363 768.148C895.143 759.663 901.626 739.253 901.626 739.253C901.626 739.253 901.515 736.006 901.626 733.931C902.47 718.143 918.464 713.748 920.014 698.158Z" fill="#D3D9E4"/>
<path d="M737.874 674.586C741.801 702.214 748.685 730.631 775.481 734.656C780.611 735.427 785.572 738.875 788.755 734.656C789.545 733.608 789.056 732.162 790.229 731.615C791.759 730.901 792.354 733.261 793.916 733.896L793.929 733.901C797.409 735.315 801.025 736.784 803.503 733.896C804.356 732.901 804.193 731.907 804.977 730.854C811.614 729.334 813.556 732.636 819.726 733.896C823.721 734.712 826.766 734.567 830.787 733.896C837.269 732.815 837.541 727.113 844.06 726.292C844.06 735.417 840.212 745.657 838.898 758.228C837.97 767.105 834.343 772.695 837.423 781.04C839.823 787.542 842.707 791.133 848.484 794.727C854.262 798.32 859.592 800.281 882.452 793.438C884.5 787.901 873.856 773.717 872.128 765.106C870.4 756.494 876.068 755.468 874.34 746.857C872.612 738.245 883.271 724.839 882.452 711.879C881.49 696.676 885.961 695.434 874.34 686.026C865.443 678.823 854.961 677.702 844.06 674.586C837.999 672.854 825.913 671.981 819.726 670.818C808.393 668.689 802.043 661.319 791.014 657.892C783.861 655.669 773.296 656.906 766.679 653.33C756.277 647.707 740.086 638.848 740.086 638.848C745.292 651.762 735.907 660.749 737.874 674.586Z" fill="url(#paint2_linear_185_937)"/>
<g filter="url(#filter3_f_185_937)">
<path d="M805.762 648.767C811.446 647.001 819.772 647.246 825.672 648.007C827.138 649.159 825.081 646.965 825.672 648.767C826.225 650.455 824.12 651.683 823.46 653.329C821.914 657.18 817.143 653.54 813.136 654.089C805.174 655.182 801.258 659.491 793.226 659.412C789.154 659.372 786.549 659.761 782.902 657.891C774.331 653.496 796.596 651.614 805.762 648.767Z" fill="#484A4D"/>
</g>
<path d="M920.011 698.158C920.011 698.158 927.432 672.339 913.374 658.618C906.827 652.228 889.824 646.487 889.824 646.487C889.824 646.487 890.527 653.176 892.036 657.132C895.102 665.164 902.225 666.181 906.047 673.86C911.106 684.024 912.959 691.623 910.472 702.755C908.44 711.846 900.841 714.24 898.626 723.285C896.726 731.046 898.626 743.781 898.626 743.781C898.626 743.781 899.271 733.691 903.097 726.327C906.581 719.623 912.12 714.293 916.371 708.077C920.011 702.755 920.011 698.158 920.011 698.158Z" fill="white"/>
<g filter="url(#filter4_f_185_937)">
<path d="M888.351 643.065L944.394 641.164L937.757 644.966L887.614 648.768L888.351 643.065Z" fill="#3E3F40"/>
<path d="M888.351 643.065L816.086 648.008L814.611 649.528L887.614 648.768L888.351 643.065Z" fill="#3E3F40"/>
</g>
<path d="M818.296 643.445H889.824L945.129 641.924C945.481 642.651 945.008 643.515 944.223 643.579L889.824 648.007H816.084C816.084 648.007 815.512 645.997 816.084 644.966C816.599 644.036 818.296 643.445 818.296 643.445Z" fill="#BDC1C7"/>
<path d="M889.824 648.007L944.223 643.579C945.009 643.515 945.482 642.651 945.129 641.924L889.824 643.445V648.007Z" fill="#C5C9D0"/>
<path d="M854.06 643.445H818.296L893.511 630.519L889.824 643.445H854.06Z" fill="#D1D5DB"/>
<path d="M721.697 587.176C723.068 600.969 721.414 609.842 727.597 622.154C731.278 629.486 737.059 631.259 740.132 638.883C743.206 646.506 750.424 651.025 759.305 654.85C774.535 661.411 785.46 654.937 801.337 650.288C816.332 645.897 837.47 632.799 837.47 632.799L846.319 641.164C846.319 641.164 852.555 637.353 856.642 635.081C861.743 632.245 864.632 630.693 869.915 628.237C875.571 625.608 884.664 622.154 884.664 622.154C886.078 619.5 887.178 617.382 886.138 614.55C885.198 611.99 880.977 609.988 880.977 609.988C880.977 609.988 885.682 605.534 884.664 602.384C884.02 600.392 880.977 598.582 880.977 598.582C880.977 598.582 882.574 593.449 880.977 590.978C879.548 588.768 877.649 587.79 875.077 587.937C872.759 588.07 869.915 590.978 869.915 590.978C869.915 590.978 872.199 584.528 869.915 581.854C868.289 579.95 866.446 579.972 864.016 579.573C857.519 578.506 855.047 585.479 848.531 586.416C845.108 586.909 840.815 589.782 839.682 586.416C839.107 584.71 839.53 583.41 840.419 581.854C841.039 580.768 841.796 580.491 842.632 579.573C844.17 577.881 845.899 577.289 846.319 575.01C846.872 572.007 845.348 569.391 842.632 568.167C839.543 566.775 837.341 569.305 834.52 571.208C829.841 574.366 828.889 578.207 826.409 583.375C825.033 586.241 825.348 588.441 823.459 590.978C819.121 596.806 812.534 593.262 805.761 595.541C802.557 596.619 800.218 596.331 797.65 598.582C796.245 599.814 796.539 602.244 794.7 602.384C793.416 602.482 792.977 601.27 791.751 600.863C789.283 600.046 787.682 601.223 785.114 600.863C782.135 600.447 779.666 600.962 777.74 598.582C776.218 596.702 776.083 594.941 776.265 592.499C776.405 590.627 776.27 589.046 777.74 587.937C778.698 587.214 779.788 587.973 780.69 587.176C782.22 585.824 781.645 583.684 780.69 581.854C780.11 580.745 779.073 580.672 778.477 579.573C777.205 577.225 777.679 574.902 779.215 572.729C779.695 572.05 780.252 571.917 780.69 571.208C782.115 568.899 779.628 567.069 779.215 564.365C778.184 557.618 781.591 553.251 779.215 546.876C775.987 538.217 769.78 535.338 761.517 531.669C753.774 528.231 748.506 527.62 740.132 528.627C732.532 529.542 721.697 535.471 721.697 535.471C712.934 553.528 719.701 567.089 721.697 587.176Z" fill="#EEF4FF"/>
<path d="M727.596 622.154C731.278 629.486 737.059 631.259 740.132 638.883C743.205 646.506 750.424 651.025 759.305 654.85C774.534 661.411 785.459 654.937 801.337 650.288L786.588 648.767C786.588 648.767 772.272 650.406 764.466 646.486C757.69 643.084 756.619 637.272 750.456 632.799C742.445 626.986 727.596 622.154 727.596 622.154Z" fill="#C7D1E4"/>
<path d="M780.689 571.209C782.115 568.899 779.145 567.102 779.215 564.365C779.277 561.918 778.262 559.961 778.477 557.522C779.215 549.158 767.471 534.253 767.471 534.253C767.471 534.253 780.689 539.921 787.326 560.564C788.98 565.707 788.712 568.899 789.538 574.25C790.134 578.108 791.662 580.287 791.013 584.135C790.26 588.601 786.565 589.742 785.114 594.02C783.958 597.43 787.057 602.35 783.639 603.145C780.83 603.798 777.74 598.583 777.74 598.583C776.218 596.703 776.083 594.941 776.265 592.5C776.405 590.627 776.27 589.047 777.74 587.937C778.698 587.214 779.788 587.974 780.689 587.177C782.22 585.824 781.645 583.684 780.689 581.854C780.11 580.745 779.073 580.673 778.477 579.573C777.205 577.226 777.679 574.903 779.215 572.73C779.694 572.051 780.252 571.917 780.689 571.209Z" fill="#D3D9E4"/>
<path d="M777.74 598.583C779.666 600.963 782.135 600.448 785.114 600.864C787.682 601.224 789.283 600.047 791.751 600.864C792.977 601.271 793.416 602.483 794.7 602.385C796.539 602.245 796.245 599.814 797.65 598.583C800.218 596.332 802.557 596.62 805.761 595.542C812.534 593.263 819.121 596.807 823.459 590.979C825.347 588.442 825.033 586.242 826.409 583.376C828.888 578.208 829.841 574.367 834.52 571.209C837.34 569.306 839.577 566.698 842.631 568.168C844.107 568.878 845.196 569.577 845.581 571.209C846.314 574.317 840.5 572.097 838.207 574.251C835.44 576.851 834.52 583.376 834.52 583.376C834.52 583.376 838.003 586.76 840.419 588.698C844.201 591.734 846.96 592.506 850.742 595.542C853.158 597.48 854.984 598.21 856.642 600.864C858.57 603.952 858.363 606.351 858.854 609.989C859.489 614.695 855.671 618.72 858.854 622.155C861.314 624.811 864.164 624.014 867.703 624.436C874.338 625.228 884.663 622.155 884.663 622.155C884.663 622.155 875.57 625.61 869.915 628.238C865.416 631.116 861.332 632.549 856.642 635.082C852.554 637.354 846.318 641.165 846.318 641.165L837.469 632.8C837.469 632.8 816.331 645.898 801.336 650.289C785.459 654.938 774.534 661.412 759.305 654.852C750.424 651.026 743.205 646.507 740.132 638.884L727.596 622.155C727.596 622.155 724 615.144 723.172 608.468C722.145 600.2 721.697 587.178 721.697 587.178C721.697 587.178 711.509 549.195 721.697 535.472C721.697 535.472 732.532 529.543 740.132 528.628C747.732 527.714 744.541 536.633 745.294 542.315C746.159 548.848 743.266 552.453 743.082 559.043C742.848 567.402 743.192 572.258 745.294 580.334C746.9 586.509 748.889 589.597 751.193 595.532C752.009 598.278 776.358 601.077 777.74 598.583Z" fill="#D2D8E5"/>
<path d="M759.306 654.851C774.536 661.412 785.461 654.938 801.338 650.289C801.338 650.289 785.734 654.167 775.529 654.851C769.207 655.275 759.306 654.851 759.306 654.851Z" fill="#C2C7D1"/>
<path d="M846.318 641.164C846.318 641.164 851.08 637.353 855.167 635.081C855.167 635.081 846.592 622.88 841.894 614.55C837.037 605.941 831.57 592.499 831.57 592.499L819.771 599.343C819.771 599.343 822.4 612.501 826.408 619.873C829.422 625.416 834.73 629.683 838.944 634.32C842.149 637.848 846.318 641.164 846.318 641.164Z" fill="#C6C9CF"/>
<path d="M842.632 579.573C844.171 577.881 845.9 577.289 846.319 575.01C846.32 567.407 841.895 568.928 838.946 571.969C835.484 575.539 834.22 582.17 831.572 586.416C829.235 590.162 822.723 598.583 822.723 598.583C822.723 598.583 828.84 594.485 830.834 593.26C833.168 591.826 833.364 588.004 835.996 588.697C837.391 589.065 837.654 590.322 838.946 590.978C842.045 592.555 844.398 591.635 847.794 590.978C853.623 589.852 856.957 587.781 861.068 583.375C862.346 582.004 870.515 580.64 864.017 579.573C857.52 578.506 855.048 585.479 848.532 586.416C845.109 586.909 840.816 589.782 839.683 586.416C839.108 584.71 839.531 583.41 840.42 581.854C841.04 580.768 841.796 580.492 842.632 579.573Z" fill="#C6C9CF"/>
<path d="M846.319 641.164C846.319 641.164 852.555 637.353 856.642 635.081C856.642 635.081 848.068 622.88 843.369 614.551C838.512 605.941 832.308 591.739 832.308 591.739L821.247 599.343C821.247 599.343 823.876 612.502 827.884 619.873C830.897 625.417 833.256 628.162 837.47 632.8C840.675 636.327 846.319 641.164 846.319 641.164Z" fill="#CBD1DE"/>
<path d="M785.116 468.558C792.009 453.286 800.516 445.117 816.825 440.424C824.058 438.342 828.832 436.587 835.997 438.903C842.099 440.875 844.955 443.923 849.271 448.788C858.06 458.696 861.069 473.096 861.069 481.484C861.069 486.807 861.223 510.786 850.008 522.545C847.422 525.256 845.917 526.895 842.634 528.628C835.708 532.284 822.724 529.388 822.724 529.388C822.724 529.388 796.768 514.866 781.429 501.254C779.955 491.369 782.028 475.401 785.116 468.558Z" fill="#443D33"/>
<g filter="url(#filter5_f_185_937)">
<path d="M788.802 474.64C777.741 496.691 781.428 501.254 781.428 501.254C804.068 495.659 814.259 495.771 838.946 496.691C832.181 476.405 833.185 463.32 832.309 441.944C821.25 441.209 815.368 447.257 806.5 454.11C798.175 460.543 793.582 465.112 788.802 474.64Z" fill="#141417"/>
</g>
<path d="M777.003 427.497C800.935 415.157 831.586 413.417 844.845 437.382C847.15 441.549 849.269 448.788 849.269 448.788C849.269 448.788 842.097 440.874 835.996 438.902C828.83 436.586 824.056 438.342 816.823 440.423C800.515 445.116 792.008 453.285 785.115 468.557C782.026 475.401 779.953 491.369 781.428 501.254C796.767 514.865 822.722 529.388 822.722 529.388C822.722 529.388 835.706 532.283 842.632 528.627C845.915 526.895 850.006 522.544 850.006 522.544C850.006 522.544 846.129 527.996 842.632 530.148C838.314 532.806 835.105 532.723 830.096 533.19C824.926 533.671 821.861 533.721 816.823 532.429C811.572 531.083 809.206 530.192 804.287 527.867C793.734 522.879 771.104 511.139 771.104 511.139C771.104 511.139 745.194 501.254 743.82 487.567C741.126 460.713 753.586 439.572 777.003 427.497Z" fill="#EEF4FF"/>
<path d="M849.271 448.788C849.271 448.788 847.152 441.549 844.846 437.382C844.846 437.382 841.823 431.221 838.209 429.778C836.84 429.232 835.973 428.783 834.522 429.018C833.25 429.224 831.803 429.232 831.573 430.539C831.315 431.999 834.497 431.335 834.522 432.82C834.541 433.89 833.211 434.044 833.048 435.101C832.757 436.979 829.896 436.931 835.997 438.903C842.099 440.875 849.271 448.788 849.271 448.788Z" fill="white"/>
<path d="M777.003 427.497C753.586 439.572 741.126 460.712 743.82 487.567C745.194 501.253 771.104 511.138 771.104 511.138C771.104 511.138 793.734 522.879 804.287 527.867C809.206 530.191 811.572 531.083 816.823 532.429C821.861 533.721 830.096 533.19 830.096 533.19L822.722 529.388C822.722 529.388 796.767 514.865 781.428 501.253C779.953 491.369 782.026 475.4 785.115 468.557C792.008 453.285 800.515 445.116 816.823 440.423C833.132 435.73 803.436 432.07 793.964 432.059C788.992 432.053 785.658 437.032 781.428 434.34C778.777 432.653 777.003 427.497 777.003 427.497Z" fill="#D2D8E5"/>
<path d="M785.117 468.558C792.01 453.286 800.516 445.117 816.825 440.424C824.058 438.342 828.832 436.587 835.997 438.903C842.099 440.875 849.271 448.788 849.271 448.788C849.271 448.788 839.408 442.416 832.31 441.944C821.251 441.21 815.37 447.257 806.501 454.11C798.176 460.543 793.821 465.244 788.804 474.641C783.747 484.109 781.429 501.254 781.429 501.254C779.954 491.369 782.028 475.401 785.117 468.558Z" fill="#BFC5D1"/>
<path d="M835.996 438.904C842.098 440.876 849.269 448.789 849.269 448.789C849.269 448.789 839.407 442.417 832.309 441.945C832.309 441.945 832.449 441 832.309 440.424C832.013 439.202 830.435 439.354 830.097 438.143C832.309 437.382 835.996 438.904 835.996 438.904Z" fill="#E9EEF7"/>
<path d="M819.036 512.659C820.615 509.16 822.723 503.535 822.723 503.535C826.76 504.956 829.66 505.294 835.996 505.056C835.996 505.056 833.176 511.73 830.834 515.701C829.008 518.798 825.672 523.305 825.672 523.305C822.327 522.167 820.262 521.206 816.086 518.743C816.086 518.743 817.949 515.067 819.036 512.659Z" fill="#7A6D58"/>
<path d="M781.429 501.254C804.069 495.659 814.259 495.771 838.946 496.691H845.583V517.982L842.633 528.627C835.707 532.283 822.723 529.387 822.723 529.387C822.723 529.387 796.768 514.865 781.429 501.254Z" fill="#C7B690" fill-opacity="0.1"/>
<g filter="url(#filter6_f_185_937)">
<path d="M856.554 480.46C857.323 493.502 852.066 506.309 847.793 506.577C843.52 506.844 836.763 494.526 835.994 481.484C835.225 468.442 836.146 452.857 840.419 452.589C844.692 452.322 855.785 467.418 856.554 480.46Z" fill="#F9FAF4" fill-opacity="0.8"/>
</g>
<path d="M822.723 529.387C822.723 529.387 796.768 514.865 781.429 501.253L823.461 526.346C823.461 526.346 835.276 528.939 842.633 526.346C845.68 525.272 850.007 522.544 850.007 522.544C850.007 522.544 845.916 526.894 842.633 528.627C835.707 532.283 822.723 529.387 822.723 529.387Z" fill="#E4E7ED"/>
<path d="M855.905 598.582L869.915 590.978C869.915 590.978 866.656 593.543 864.754 594.78C862.131 596.487 862.115 596.303 860.329 597.061C858.645 597.777 855.905 598.582 855.905 598.582Z" fill="#D3D9E4"/>
<path d="M861.803 607.707L880.976 598.582C880.976 598.582 876.515 601.66 873.912 603.145C870.323 605.193 870.302 604.972 867.858 605.882C865.553 606.74 861.803 607.707 861.803 607.707Z" fill="#D3D9E4"/>
<path d="M861.803 619.112L880.976 609.988C880.976 609.988 876.515 613.065 873.912 614.55C870.323 616.598 870.302 616.377 867.858 617.287C865.553 618.146 861.803 619.112 861.803 619.112Z" fill="#D3D9E4"/>
<ellipse cx="0.744265" cy="3.01459" rx="0.744265" ry="3.01459" transform="matrix(0.831344 -0.555758 0.532243 0.846591 841.156 568.995)" fill="#010005"/>
<ellipse cx="1.39573" cy="4.23546" rx="1.39573" ry="4.23546" transform="matrix(0.831346 -0.555755 0.532246 0.84659 863.823 581.885)" fill="#010005"/>
<ellipse cx="1.34325" cy="4.23548" rx="1.34325" ry="4.23548" transform="matrix(0.83135 -0.55575 0.532251 0.846586 874.236 589.43)" fill="#010005"/>
<ellipse cx="1.13036" cy="2.9275" rx="1.13036" ry="2.9275" transform="matrix(0.831349 -0.555751 0.53225 0.846587 880.11 599.839)" fill="#010005"/>
<ellipse cx="1.11202" cy="3.18905" rx="1.11202" ry="3.18905" transform="matrix(0.831351 -0.555747 0.532254 0.846585 881.336 613.063)" fill="#010005"/>
<path d="M913.063 573.7C913.278 573.116 913.829 572.729 914.446 572.729H968.061C969.094 572.729 969.807 573.773 969.439 574.748L944.728 640.343C944.523 640.889 944.021 641.263 943.444 641.3L890.298 646.29C889.998 646.318 889.702 646.211 889.505 645.983C888.995 645.391 888.077 644.185 888.349 643.445L913.063 573.7Z" fill="#A3A4A9"/>
<path d="M962.102 591.964L966.416 590.743L971.676 590.169C971.676 590.169 968.336 590.599 967.179 591.04C965.585 591.649 965.606 591.541 964.582 591.722C963.617 591.893 962.102 591.964 962.102 591.964Z" fill="#D3D9E4"/>
<path d="M960.32 600.376L964.634 599.156L969.464 598.582C969.464 598.582 966.554 599.011 965.397 599.453C963.803 600.061 963.823 599.953 962.8 600.134C961.835 600.305 960.32 600.376 960.32 600.376Z" fill="#D3D9E4"/>
<path d="M966.526 582.84C966.526 582.84 969.124 581.96 970.84 581.619C972.585 581.271 975.362 581.094 975.362 581.094C975.362 581.094 973.213 581.526 971.603 581.916C970.584 582.162 970.029 582.416 969.005 582.597C968.04 582.768 966.526 582.84 966.526 582.84Z" fill="#D3D9E4"/>
<path d="M914.541 573.721C914.755 573.125 915.307 572.729 915.923 572.729H969.538C970.571 572.729 971.284 573.795 970.917 574.791L946.206 641.77C946 642.327 945.498 642.709 944.922 642.747L890.619 646.336C889.553 646.407 888.77 645.322 889.142 644.289L914.541 573.721Z" fill="url(#paint3_linear_185_937)"/>
<ellipse cx="976.1" cy="575.771" rx="2.2122" ry="3.04153" fill="#010005"/>
<ellipse cx="973.89" cy="585.657" rx="2.94969" ry="3.80192" fill="#010005"/>
<ellipse cx="967.992" cy="601.623" rx="1.47483" ry="1.51943" fill="#010005"/>
<ellipse cx="970.201" cy="594.02" rx="2.2122" ry="3.04151" fill="#010005"/>
<path d="M857.38 802.635C857.38 801.697 858.188 800.978 859.089 801.111C863.352 801.744 874.673 803.222 882.452 802.365C885.935 801.982 894.604 800.844 894.604 800.844L892.48 814.531C892.48 814.531 885.935 815.668 882.452 816.052C874.36 816.943 862.435 815.309 858.609 814.726C857.895 814.617 857.38 813.985 857.38 813.24V802.635Z" fill="#DADBDF"/>
<path d="M843.704 845.071C843.1 844.572 842.969 843.684 843.423 843.037C846.024 839.325 854.596 827.574 862.541 822.134C872.99 814.981 892.952 811.489 892.952 811.489L891.3 822.134C891.3 822.134 875.982 826.335 867.703 832.019C861.091 836.559 853.536 845.774 850.939 849.066C850.42 849.724 849.48 849.836 848.838 849.306L843.704 845.071Z" fill="#EBECF1"/>
<path d="M647.218 546.876L686.301 529.388L687.038 530.909L647.956 548.398L647.218 546.876Z" fill="#B6B2B2"/>
<path d="M647.959 548.398L687.042 530.909L695.153 597.823L722.437 730.889L682.617 738.493C682.617 738.493 677.579 739.496 675.243 737.733C672.955 736.005 672.294 730.889 672.294 730.889L648.115 611.518C648.012 611.007 647.959 610.486 647.959 609.963V548.398Z" fill="#CBCBCB"/>
<g filter="url(#filter7_f_185_937)">
<ellipse cx="426.898" cy="814.991" rx="22.8595" ry="1.51937" fill="black"/>
</g>
<path d="M435.01 807.39C435.01 807.39 438.085 805.805 440.171 805.108C446.205 803.093 456.394 804.348 456.394 804.348L466.718 802.827L471.88 810.431L468.193 814.993L455.657 817.274L436.484 816.514H432.06L435.01 807.39Z" fill="#2A2220"/>
<path d="M471.88 810.431L466.718 802.827L460.082 807.39L455.657 817.274L468.193 814.993L471.88 810.431Z" fill="#827876"/>
<path d="M10 709.877L37.2839 693.909L134.621 698.471L166.329 709.877L186.239 722.803C186.239 722.803 191.882 742.572 187.714 753.979C179.429 776.657 130.197 772.228 130.197 772.228L46.8702 775.27H10V709.877Z" fill="#131211"/>
<path d="M578.215 973.283L582.639 974.804L595.175 987.731L609.923 1005.98L601.812 1011.3H587.064L578.215 1012.82L558.305 1013.58C558.305 1013.58 544.294 1005.98 544.294 1004.46C544.295 1002.94 550.931 995.334 550.931 995.334C550.931 995.334 557.264 996.328 559.78 993.814C561.939 991.656 561.992 986.21 561.992 986.21L578.215 973.283Z" fill="#191515"/>
<g filter="url(#filter8_f_185_937)">
<path d="M598.862 1009.02L594.438 1011.3C594.438 1011.3 549.097 1015.92 519.96 1015.86C503.824 1015.83 478.666 1017.28 478.666 1014.34C478.666 1011.4 509.916 1012.81 529.547 1009.02C537.375 1007.51 541.558 1005.52 549.456 1004.46C568.666 1001.88 598.862 1009.02 598.862 1009.02Z" fill="black"/>
</g>
<path d="M582.639 974.804L578.215 973.283L582.639 986.21L579.69 990.772L590.751 1004.46L601.812 1011.3L609.923 1005.98L595.175 987.731L582.639 974.804Z" fill="#AB9EA1"/>
<path d="M578.216 1012.82L587.065 1011.3H601.813L590.752 1004.46L579.691 990.772L559.781 993.813C557.265 996.328 550.932 995.334 550.932 995.334C550.932 995.334 544.295 1002.94 544.295 1004.46C544.295 1005.98 558.306 1013.58 558.306 1013.58L578.216 1012.82Z" fill="#312520"/>
<g filter="url(#filter9_f_185_937)">
<path d="M236.747 778.311L262.927 782.873L251.129 785.155L236.747 786.675L217.84 788.956H179.124L169.22 786.675L152.113 782.873L112.497 773.749L128.052 752.458L162.918 763.864L203.357 758.541L203.434 770.707L217.84 778.311H236.747Z" fill="black"/>
</g>
<path d="M214.259 724.324L229.448 721.283C229.448 721.283 232.882 717.521 235.643 715.96C244.321 711.054 250.867 720.77 260.715 719.762C266.623 719.157 271.699 719.49 278.413 721.283C298.52 726.651 316.02 760.062 316.02 760.062L288.736 766.145L290.948 773.749L281.362 782.873L265.139 786.675L233.431 782.873H217.946L195.823 773.749L203.935 749.417L214.259 724.324Z" fill="#404145"/>
<path d="M233.43 782.873C233.43 782.873 252.744 788.057 265.138 786.675C271.598 785.955 275.184 784.949 281.361 782.873C285.785 781.387 290.354 782.608 292.422 778.311C294.569 773.852 288.735 766.145 288.735 766.145L265.138 762.343L243.016 769.947L229.006 766.145H209.833L217.945 782.873H233.43Z" fill="#494A4F"/>
<path d="M316.02 760.062C316.02 760.062 298.52 726.65 278.413 721.282C271.699 719.49 267.351 719.001 260.715 719.761L288.736 766.145C303.755 766.212 310.525 765.327 316.02 760.062Z" fill="#2E2F33"/>
<g filter="url(#filter10_f_185_937)">
<path d="M1119.16 820.892H1102.28C1102.28 820.892 1084.5 819.87 1084.5 818.61C1084.5 817.351 1102.28 816.329 1102.28 816.329L1111.16 817.09L1119.16 820.892Z" fill="black"/>
</g>
<path d="M1099.99 810.246L1117.69 807.965L1128.75 814.048L1130.22 820.891H1117.69L1111.05 819.371L1099.99 810.246Z" fill="#8F8888"/>
<path d="M1130.22 820.891L1128.75 814.048L1117.69 807.965L1114.74 814.048L1117.69 820.891H1130.22Z" fill="#BAB7B6"/>
</g>
<defs>
<filter id="filter0_d_185_937" x="0" y="0" width="1459" height="1132" filterUnits="userSpaceOnUse" color-interpolation-filters="sRGB">
<feFlood flood-opacity="0" result="BackgroundImageFix"/>
<feColorMatrix in="SourceAlpha" type="matrix" values="0 0 0 0 0 0 0 0 0 0 0 0 0 0 0 0 0 0 127 0" result="hardAlpha"/>
<feOffset dy="4"/>
<feGaussianBlur stdDeviation="5"/>
<feColorMatrix type="matrix" values="0 0 0 0 0 0 0 0 0 0 0 0 0 0 0 0 0 0 0.25 0"/>
<feBlend mode="normal" in2="BackgroundImageFix" result="effect1_dropShadow_185_937"/>
<feBlend mode="normal" in="SourceGraphic" in2="effect1_dropShadow_185_937" result="shape"/>
</filter>
<filter id="filter1_f_185_937" x="8.2" y="816.413" width="908.971" height="119.723" filterUnits="userSpaceOnUse" color-interpolation-filters="sRGB">
<feFlood flood-opacity="0" result="BackgroundImageFix"/>
<feBlend mode="normal" in="SourceGraphic" in2="BackgroundImageFix" result="shape"/>
<feGaussianBlur stdDeviation="0.9" result="effect1_foregroundBlur_185_937"/>
</filter>
<filter id="filter2_f_185_937" x="883.398" y="818.376" width="104.925" height="44.2417" filterUnits="userSpaceOnUse" color-interpolation-filters="sRGB">
<feFlood flood-opacity="0" result="BackgroundImageFix"/>
<feBlend mode="normal" in="SourceGraphic" in2="BackgroundImageFix" result="shape"/>
<feGaussianBlur stdDeviation="1" result="effect1_foregroundBlur_185_937"/>
</filter>
<filter id="filter3_f_185_937" x="778.976" y="645.43" width="49.2349" height="15.9911" filterUnits="userSpaceOnUse" color-interpolation-filters="sRGB">
<feFlood flood-opacity="0" result="BackgroundImageFix"/>
<feBlend mode="normal" in="SourceGraphic" in2="BackgroundImageFix" result="shape"/>
<feGaussianBlur stdDeviation="1" result="effect1_foregroundBlur_185_937"/>
</filter>
<filter id="filter4_f_185_937" x="812.611" y="639.164" width="133.783" height="12.3642" filterUnits="userSpaceOnUse" color-interpolation-filters="sRGB">
<feFlood flood-opacity="0" result="BackgroundImageFix"/>
<feBlend mode="normal" in="SourceGraphic" in2="BackgroundImageFix" result="shape"/>
<feGaussianBlur stdDeviation="1" result="effect1_foregroundBlur_185_937"/>
</filter>
<filter id="filter5_f_185_937" x="776.838" y="437.883" width="66.1074" height="67.3707" filterUnits="userSpaceOnUse" color-interpolation-filters="sRGB">
<feFlood flood-opacity="0" result="BackgroundImageFix"/>
<feBlend mode="normal" in="SourceGraphic" in2="BackgroundImageFix" result="shape"/>
<feGaussianBlur stdDeviation="2" result="effect1_foregroundBlur_185_937"/>
</filter>
<filter id="filter6_f_185_937" x="831.748" y="448.586" width="28.8818" height="61.9949" filterUnits="userSpaceOnUse" color-interpolation-filters="sRGB">
<feFlood flood-opacity="0" result="BackgroundImageFix"/>
<feBlend mode="normal" in="SourceGraphic" in2="BackgroundImageFix" result="shape"/>
<feGaussianBlur stdDeviation="2" result="effect1_foregroundBlur_185_937"/>
</filter>
<filter id="filter7_f_185_937" x="403.039" y="812.472" width="47.719" height="5.03876" filterUnits="userSpaceOnUse" color-interpolation-filters="sRGB">
<feFlood flood-opacity="0" result="BackgroundImageFix"/>
<feBlend mode="normal" in="SourceGraphic" in2="BackgroundImageFix" result="shape"/>
<feGaussianBlur stdDeviation="0.5" result="effect1_foregroundBlur_185_937"/>
</filter>
<filter id="filter8_f_185_937" x="477.666" y="1002.9" width="122.197" height="14.2972" filterUnits="userSpaceOnUse" color-interpolation-filters="sRGB">
<feFlood flood-opacity="0" result="BackgroundImageFix"/>
<feBlend mode="normal" in="SourceGraphic" in2="BackgroundImageFix" result="shape"/>
<feGaussianBlur stdDeviation="0.5" result="effect1_foregroundBlur_185_937"/>
</filter>
<filter id="filter9_f_185_937" x="109.797" y="749.758" width="155.83" height="41.8983" filterUnits="userSpaceOnUse" color-interpolation-filters="sRGB">
<feFlood flood-opacity="0" result="BackgroundImageFix"/>
<feBlend mode="normal" in="SourceGraphic" in2="BackgroundImageFix" result="shape"/>
<feGaussianBlur stdDeviation="1.35" result="effect1_foregroundBlur_185_937"/>
</filter>
<filter id="filter10_f_185_937" x="1083.1" y="814.929" width="37.4577" height="7.36226" filterUnits="userSpaceOnUse" color-interpolation-filters="sRGB">
<feFlood flood-opacity="0" result="BackgroundImageFix"/>
<feBlend mode="normal" in="SourceGraphic" in2="BackgroundImageFix" result="shape"/>
<feGaussianBlur stdDeviation="0.7" result="effect1_foregroundBlur_185_937"/>
</filter>
<linearGradient id="paint0_linear_185_937" x1="627.571" y1="741.887" x2="627.571" y2="1002.59" gradientUnits="userSpaceOnUse">
<stop stop-color="#3F3F3F"/>
<stop offset="1" stop-color="#D1D1D1"/>
</linearGradient>
<linearGradient id="paint1_linear_185_937" x1="916.108" y1="867.304" x2="10" y2="867.304" gradientUnits="userSpaceOnUse">
<stop/>
<stop offset="1" stop-opacity="0.7"/>
</linearGradient>
<linearGradient id="paint2_linear_185_937" x1="869.916" y1="665.496" x2="734.038" y2="792.114" gradientUnits="userSpaceOnUse">
<stop stop-color="#BCC2CD"/>
<stop offset="1" stop-color="#707580"/>
</linearGradient>
<linearGradient id="paint3_linear_185_937" x1="970.94" y1="572.729" x2="886.215" y2="643.156" gradientUnits="userSpaceOnUse">
<stop stop-color="white"/>
<stop offset="1" stop-color="#D0D2D6"/>
</linearGradient>
<clipPath id="clip0_185_937">
<rect width="1439" height="1112" fill="white" transform="translate(10 6)"/>
</clipPath>
</defs>
</svg>
